<svg width="32" height="32" viewBox="0 0 32 32" fill="none" xmlns="http://www.w3.org/2000/svg">
<path d="M14.522 2.95767C15.3153 2.08654 16.686 2.08653 17.4793 2.95767L19.5435 5.22422C19.9445 5.66448 20.5207 5.90319 21.1156 5.87539L24.1778 5.73227C25.3548 5.67727 26.324 6.6465 26.269 7.82346L26.1259 10.8857C26.0981 11.4806 26.3368 12.0568 26.7771 12.4578L29.0436 14.522C29.9148 15.3153 29.9148 16.686 29.0436 17.4793L26.7771 19.5435C26.3368 19.9445 26.0981 20.5207 26.1259 21.1156L26.269 24.1778C26.324 25.3548 25.3548 26.324 24.1778 26.269L21.1156 26.1259C20.5207 26.0981 19.9445 26.3368 19.5435 26.7771L17.4793 29.0436C16.686 29.9148 15.3153 29.9148 14.522 29.0436L12.4578 26.7771C12.0569 26.3368 11.4806 26.0981 10.8857 26.1259L7.82346 26.269C6.6465 26.324 5.67727 25.3548 5.73227 24.1778L5.87539 21.1156C5.90319 20.5207 5.66449 19.9445 5.22422 19.5435L2.95767 17.4793C2.08654 16.686 2.08653 15.3153 2.95767 14.522L5.22422 12.4578C5.66448 12.0569 5.90319 11.4806 5.87539 10.8857L5.73227 7.82346C5.67727 6.6465 6.6465 5.67727 7.82346 5.73227L10.8857 5.87539C11.4806 5.90319 12.0568 5.66449 12.4578 5.22422L14.522 2.95767Z" stroke="#1B2515" stroke-width="1.5"/>
<path d="M12 16L14.6667 18.6667L20 13.3333" stroke="#1B2515" stroke-width="1.5" stroke-linecap="round" stroke-linejoin="round"/>
</svg>
